Coordinates
version=1
nRows=24
nColumns=24
inDegrees=yes

Units are S.I. units (second, meters, Newtons, ...)
Angles are in degrees.

endheader
time	pelvis_tilt	pelvis_list	pelvis_rotation	pelvis_tx	pelvis_ty	pelvis_tz	hip_flexion_r	hip_adduction_r	hip_rotation_r	knee_angle_r	ankle_angle_r	subtalar_angle_r	mtp_angle_r	hip_flexion_l	hip_adduction_l	hip_rotation_l	knee_angle_l	ankle_angle_l	subtalar_angle_l	mtp_angle_l	lumbar_extension	lumbar_bending	lumbar_rotation
      1.14416667	     -4.85213205	      1.83126490	     -6.29818964	      0.11588814	      1.04538845	      0.26934896	     22.62649052	     -4.31820479	     -3.31164743	    -74.37222730	      3.51212189	     -0.91133003	      5.75474017	     23.59185117	      1.18944838	     -0.28373796	    -28.73558463	     15.63283511	      4.09707463	      1.63472146	     -6.51029216	     -2.74864110	      2.39102983
      1.14833333	     -4.82673524	      1.73306032	     -6.33730076	      0.12151152	      1.04705622	      0.26946394	     23.11734825	     -4.09662503	     -3.43486416	    -73.99163684	      3.82466542	     -0.63927111	      5.77078431	     22.98107787	      1.09780257	     -0.33403908	    -28.28612305	     15.79665870	      4.21946176	      1.64915997	     -6.53297046	     -2.65020287	      2.33132058
      1.15250000	     -4.80935676	      1.62196096	     -6.36905460	      0.12713888	      1.04868418	      0.26957698	     23.59585941	     -3.85965326	     -3.57046168	    -73.53937231	      4.13938261	     -0.36899919	      5.79077056	     22.37881682	      0.99256392	     -0.38822378	    -27.83745853	     15.95310519	      4.32665995	      1.66244668	     -6.54202101	     -2.53046217	      2.27626663
      1.15666667	     -4.78018919	      1.51989910	     -6.39477563	      0.13277341	      1.05032633	      0.26968738	     24.04446191	     -3.63549335	     -3.70894313	    -73.02002296	      4.45327005	     -0.07021597	      5.81672238	     21.75555111	      0.90046074	     -0.43886866	    -27.36604031	     16.09871876	      4.44322333	      1.67702660	     -6.56579795	     -2.42286696	      2.21145184
      1.16083333	     -4.75547354	      1.42086053	     -6.41583002	      0.13839921	      1.05191419	      0.26979497	     24.48623271	     -3.41603225	     -3.85363623	    -72.44775413	      4.76219498	      0.22924877	      5.84649415	     21.13486864	      0.81362148	     -0.48506728	    -26.88493243	     16.23409029	      4.54454351	      1.69138773	     -6.58212104	     -2.31743587	      2.14645333
      1.16500000	     -4.71954634	      1.32028866	     -6.42994978	      0.14402208	      1.05349401	      0.26990191	     24.89557305	     -3.19626228	     -4.00075353	    -71.80866291	      5.07615999	      0.54038578	      5.87996961	     20.50128578	      0.72841766	     -0.52623261	    -26.39877151	     16.35839323	      4.64119892	      1.70575881	     -6.61390826	     -2.20519820	      2.07881907
      1.16916667	     -4.68669683	      1.21065558	     -6.43424440	      0.14963345	      1.05502231	      0.27000117	     25.29033559	     -2.96806469	     -4.15718901	    -71.11104929	      5.37894194	      0.83903038	      5.91619340	     19.87324432	      0.63626285	     -0.55449791	    -25.91485582	     16.48429080	      4.73804625	      1.72059056	     -6.64521901	     -2.08851695	      2.00800401
      1.17333333	     -4.66247727	      1.10751575	     -6.43482931	      0.15525087	      1.05649467	      0.27009657	     25.67864992	     -2.74711700	     -4.31246497	    -70.35774090	      5.67949789	      1.13860883	      5.95388272	     19.25454615	      0.55113878	     -0.58488550	    -25.42613106	     16.59476283	      4.82712212	      1.73474840	     -6.66466395	     -1.96931176	      1.93519145
      1.17750000	     -4.63578073	      1.01359172	     -6.42840898	      0.16086031	      1.05790720	      0.27018490	     26.05214362	     -2.54059582	     -4.47053444	    -69.55856786	      5.97843800	      1.43386278	      5.99540697	     18.63471770	      0.47886129	     -0.60655736	    -24.93404281	     16.70429061	      4.90808940	      1.74984118	     -6.68880150	     -1.86466203	      1.85368253
      1.18166667	     -4.58615449	      0.92777267	     -6.41339077	      0.16646416	      1.05931415	      0.27024919	     26.38496057	     -2.35201525	     -4.63264865	    -68.70794439	      6.27045387	      1.72865446	      6.05424323	     17.98899572	      0.42342727	     -0.61512054	    -24.43178706	     16.81787695	      4.97990439	      1.77142808	     -6.74027145	     -1.76262751	      1.74522667
      1.18583333	     -4.57432169	      0.82172891	     -6.39781571	      0.17205476	      1.06059659	      0.27034425	     26.73837190	     -2.12858041	     -4.78844581	    -67.79862012	      6.54783346	      1.97571705	      6.09557139	     17.39494515	      0.33678092	     -0.62915877	    -23.95359669	     16.89608884	      5.03815048	      1.78511922	     -6.75252595	     -1.64318889	      1.67914462
      1.19000000	     -4.54364954	      0.72619854	     -6.36884259	      0.17765680	      1.06185720	      0.27038889	     27.05523879	     -1.93357009	     -4.95693132	    -66.84454348	      6.81755252	      2.24382960	      6.15855328	     16.77862884	      0.27201772	     -0.62214135	    -23.46401150	     17.00926247	      5.10352999	      1.80773338	     -6.78549009	     -1.52385360	      1.56473900
      1.19416667	     -4.56566155	      0.62772284	     -6.34131954	      0.18324345	      1.06294361	      0.27047091	     27.41582264	     -1.71906839	     -5.10973404	    -65.84442377	      7.07413752	      2.45269167	      6.19875177	     16.23404723	      0.19176395	     -0.62801852	    -23.00404570	     17.08075720	      5.15488633	      1.82086742	     -6.75737036	     -1.40633848	      1.49952792
      1.19833333	     -4.53376320	      0.54045966	     -6.30141423	      0.18882061	      1.06405579	      0.27050754	     27.70273522	     -1.53866274	     -5.27505759	    -64.80342787	      7.33017323	      2.69049878	      6.26058956	     15.63052283	      0.13740726	     -0.61413734	    -22.53135114	     17.18946262	      5.20694441	      1.84314014	     -6.79673874	     -1.29428479	      1.37793211
      1.20250000	     -4.55080238	      0.46031598	     -6.26409354	      0.19438635	      1.06500221	      0.27056689	     28.03230251	     -1.35297109	     -5.42050118	    -63.72342192	      7.57529558	      2.89346722	      6.32911122	     15.08941467	      0.08257087	     -0.59899553	    -22.07420092	     17.26899260	      5.24431531	      1.86768865	     -6.78403785	     -1.19116174	      1.26373387
      1.20666667	     -4.55897803	      0.37209585	     -6.22473495	      0.19994801	      1.06590517	      0.27062987	     28.33175943	     -1.16073740	     -5.56429996	    -62.59187238	      7.80571102	      3.06713701	      6.36870563	     14.54884901	      0.01635881	     -0.60334889	    -21.63699234	     17.33255295	      5.28079447	      1.88122846	     -6.77151324	     -1.08193339	      1.19894002
      1.21083333	     -4.57091349	      0.30487896	     -6.17523828	      0.20549438	      1.06669651	      0.27066724	     28.62844942	     -1.00081100	     -5.70867433	    -61.43592010	      8.02808017	      3.25325591	      6.43695242	     14.01729444	     -0.02089080	     -0.57454019	    -21.19898754	     17.43708086	      5.31409507	      1.90760322	     -6.76713951	     -0.98900530	      1.06249795
      1.21500000	     -4.61343252	      0.22270636	     -6.13063451	      0.21103396	      1.06737241	      0.27072618	     28.93729311	     -0.81559008	     -5.84017998	    -60.22709998	      8.23608946	      3.39980399	      6.47664260	     13.53359075	     -0.08542689	     -0.57671062	    -20.79324016	     17.50714812	      5.35155692	      1.92252462	     -6.72292397	     -0.88359776	      0.99405666
      1.21916667	     -4.65201517	      0.16176518	     -6.08424658	      0.21656877	      1.06796810	      0.27078951	     29.23168448	     -0.65503539	     -5.95858946	    -58.98866158	      8.43912890	      3.54784780	      6.51625721	     13.05080169	     -0.12484042	     -0.56719760	    -20.39136136	     17.58904040	      5.38575179	      1.93815768	     -6.68629526	     -0.79662583	      0.90429357
      1.22333333	     -4.70407872	      0.10463354	     -6.03451229	      0.22208377	      1.06844298	      0.27084605	     29.52850153	     -0.50121944	     -6.07159079	    -57.71818777	      8.62943298	      3.68182240	      6.55522411	     12.59582751	     -0.16177178	     -0.55691096	    -20.01273736	     17.68116277	      5.42333303	      1.95457572	     -6.63571741	     -0.71669864	      0.80722593
      1.22750000	     -4.74739750	      0.05240533	     -5.97881465	      0.22758139	      1.06884752	      0.27089956	     29.80150765	     -0.35816899	     -6.18197507	    -56.41357498	      8.80910904	      3.81372278	      6.63357540	     12.13863993	     -0.19112187	     -0.53144450	    -19.64250513	     17.78651625	      5.46120594	      1.98887371	     -6.60928415	     -0.63448684	      0.63721495
      1.23166667	     -4.82909143	      0.00637878	     -5.93514552	      0.23307728	      1.06910489	      0.27098846	     30.10210376	     -0.20996873	     -6.26772017	    -55.07291841	      8.98173530	      3.92655285	      6.66819490	     11.73797722	     -0.22577617	     -0.54507048	    -19.30421556	     17.86810247	      5.49808137	      2.00447314	     -6.52228919	     -0.56740169	      0.58208009
      1.23583333	     -4.90935244	     -0.03946955	     -5.88599204	      0.23855957	      1.06928846	      0.27106596	     30.38297692	     -0.06776750	     -6.35238642	    -53.69480371	      9.13908465	      4.04032316	      6.70693557	     11.34511117	     -0.25779076	     -0.54189789	    -18.98232654	     17.96970108	      5.54237736	      2.02288040	     -6.44889438	     -0.49631494	      0.49732533
      1.24000000	     -4.99700043	     -0.06466408	     -5.84081375	      0.24401880	      1.06934626	      0.27116056	     30.66608983	      0.05562576	     -6.41376318	    -52.29983690	      9.29436790	      4.14506429	      6.74353369	     10.97364178	     -0.27063065	     -0.54870638	    -18.68152968	     18.07325494	      5.58915709	      2.04101046	     -6.36890284	     -0.45092804	      0.40812843
